<?xml version="1.0" standalone="no"?>
<!DOCTYPE svg PUBLIC "-//W3C//DTD SVG 20010904//EN"
 "http://www.w3.org/TR/2001/REC-SVG-20010904/DTD/svg10.dtd">
<svg version="1.0" xmlns="http://www.w3.org/2000/svg"
 width="1024.000000pt" height="1024.000000pt" viewBox="0 0 1024.000000 1024.000000"
 preserveAspectRatio="xMidYMid meet">

<g transform="translate(0.000000,1024.000000) scale(0.100000,-0.100000)"
fill="#000000" stroke="none">
<path d="M3305 6373 c-332 -27 -611 -168 -704 -355 -42 -84 -42 -132 2 -182
56 -64 78 -61 268 32 180 89 264 116 414 133 105 12 303 6 404 -12 155 -28
381 -107 541 -190 150 -78 364 -215 470 -301 32 -26 41 -28 120 -28 69 0 95
-5 137 -24 70 -33 154 -97 178 -138 l20 -33 6 81 c3 45 10 87 14 94 5 9 38 11
120 9 l113 -4 64 56 c98 86 311 253 391 307 122 83 282 169 401 217 62 25 119
45 126 45 8 0 10 7 5 23 -16 53 -17 116 -2 146 20 39 16 40 -105 5 -359 -104
-654 -298 -1111 -734 -37 -36 -74 -65 -82 -65 -8 0 -51 36 -97 80 -46 44 -126
119 -178 165 -52 47 -97 87 -100 90 -22 22 -131 108 -205 162 -267 194 -543
325 -808 384 -131 29 -307 45 -402 37z"/>
<path d="M6531 6285 c-101 -116 57 -276 163 -166 51 53 43 144 -16 185 -13 9
-43 16 -69 16 -41 0 -51 -4 -78 -35z"/>
<path d="M6857 6299 c-24 -14 -43 -59 -39 -91 3 -29 53 -78 78 -78 29 0 71 30
83 59 32 75 -52 151 -122 110z"/>
<path d="M7066 6229 c3 -19 -1 -53 -9 -77 -8 -23 -12 -44 -8 -46 3 -2 31 -11
61 -21 146 -47 304 -177 363 -298 l28 -58 27 20 c52 37 64 57 57 93 -35 163
-286 375 -487 413 l-37 7 5 -33z"/>
<path d="M6710 5250 l0 -420 65 0 65 0 0 420 0 420 -65 0 -65 0 0 -420z"/>
<path d="M5958 5645 c-5 -5 -8 -189 -8 -411 l0 -402 73 -4 c39 -2 142 -3 228
-3 141 2 160 4 203 25 57 27 82 52 107 105 40 87 12 190 -69 251 -22 18 -47
34 -54 37 -9 4 -2 14 21 33 90 73 92 214 5 296 -63 59 -111 71 -314 76 -102 2
-188 1 -192 -3z m375 -138 c42 -18 59 -52 55 -112 -2 -39 -8 -52 -31 -69 -24
-18 -45 -21 -148 -24 l-119 -4 0 111 0 111 105 0 c66 0 118 -5 138 -13z m39
-343 c87 -45 91 -169 6 -205 -32 -14 -269 -21 -282 -9 -2 3 -6 55 -7 115 l-2
110 34 7 c51 9 220 -3 251 -18z"/>
<path d="M7225 5409 c-105 -13 -195 -80 -236 -176 -29 -68 -26 -179 6 -248 62
-129 202 -193 356 -160 156 32 248 154 237 313 -13 179 -167 293 -363 271z
m119 -123 c134 -56 154 -246 35 -322 -63 -39 -122 -42 -189 -7 -71 36 -95 76
-95 158 0 50 5 67 30 105 47 69 143 98 219 66z"/>
<path d="M7910 5407 c-138 -40 -222 -167 -207 -314 18 -173 185 -287 350 -239
30 9 69 27 85 41 17 14 33 25 36 25 3 0 6 -20 6 -45 0 -81 -37 -137 -108 -165
-61 -24 -184 1 -255 52 -15 11 -22 8 -52 -26 -33 -37 -34 -41 -18 -58 9 -10
46 -33 82 -51 61 -30 74 -32 166 -32 120 0 186 24 240 88 65 76 70 107 70 432
l0 290 -55 0 c-47 0 -55 -3 -58 -20 -7 -45 -11 -49 -30 -32 -54 49 -176 75
-252 54z m191 -140 c104 -70 107 -206 6 -273 -34 -22 -54 -28 -104 -28 -54 -1
-66 3 -100 30 -106 85 -92 235 27 283 48 19 134 13 171 -12z"/>
<path d="M1920 5120 l0 -290 59 0 59 0 4 183 c4 197 9 215 65 253 39 25 124
24 160 -2 53 -39 58 -63 58 -256 l0 -178 63 0 63 0 -3 213 -3 214 -30 48 c-22
36 -45 57 -85 78 -49 26 -62 28 -125 25 -54 -4 -82 -11 -117 -32 l-47 -27 -3
28 c-3 27 -6 28 -60 31 l-58 3 0 -291z"/>
<path d="M2725 5385 c-68 -36 -101 -69 -133 -135 -35 -71 -37 -180 -4 -250 43
-93 147 -160 248 -160 62 0 146 31 173 63 23 28 31 19 31 -33 0 -72 -30 -126
-83 -151 -74 -33 -185 -20 -257 31 -39 28 -51 25 -83 -14 l-27 -35 32 -31 c64
-60 111 -75 233 -75 91 0 118 4 156 21 59 28 105 73 132 132 21 44 22 63 24
337 2 160 0 298 -3 308 -5 15 -15 17 -57 15 -50 -3 -52 -4 -57 -35 l-5 -32
-50 31 c-44 28 -61 32 -135 36 -77 3 -90 1 -135 -23z m218 -109 c74 -31 115
-106 101 -184 -10 -56 -76 -118 -135 -127 -125 -19 -237 84 -215 197 8 45 60
106 99 117 48 14 114 13 150 -3z"/>
<path d="M3305 5266 c-9 -172 0 -287 25 -337 58 -114 218 -149 332 -74 47 31
58 31 58 0 0 -24 3 -25 55 -25 l55 0 -2 288 -3 287 -60 0 -60 0 -2 -177 c-2
-199 -11 -235 -65 -268 -63 -38 -159 -21 -191 34 -8 13 -14 91 -17 216 l-5
195 -56 3 -57 3 -7 -145z"/>
<path d="M3920 5390 c0 -11 4 -28 10 -38 9 -16 190 -420 212 -472 9 -21 6 -37
-19 -91 -37 -79 -56 -99 -93 -99 -25 0 -30 -6 -44 -47 -9 -26 -16 -48 -16 -50
0 -9 148 0 167 10 35 20 56 55 125 212 122 277 248 575 248 585 0 6 -27 10
-64 10 l-64 0 -48 -122 c-56 -145 -111 -268 -118 -268 -3 0 -12 15 -20 33 -8
17 -46 104 -85 192 l-70 160 -60 3 c-56 3 -61 1 -61 -18z"/>
<path d="M4745 5396 c-159 -50 -245 -226 -189 -389 19 -55 83 -131 133 -156
112 -57 274 -44 368 29 l22 17 -27 25 c-53 47 -54 48 -97 28 -57 -27 -156 -27
-205 1 -34 20 -80 81 -80 108 0 8 67 11 226 11 l227 0 -5 73 c-6 85 -30 139
-84 187 -84 73 -190 97 -289 66z m171 -115 c31 -14 47 -30 64 -65 12 -26 20
-49 17 -52 -6 -7 -267 -13 -299 -7 -32 6 -34 13 -12 59 34 71 147 103 230 65z"/>
<path d="M5445 5398 c-16 -6 -41 -19 -54 -29 -32 -25 -49 -24 -53 4 -3 19 -10
22 -55 25 l-53 3 0 -285 c0 -158 1 -286 3 -287 1 0 24 -3 51 -6 35 -4 51 -1
57 8 5 8 9 84 9 169 0 131 3 162 20 197 49 109 214 122 263 20 15 -30 20 -71
24 -212 l6 -175 43 0 c23 0 49 -3 58 -6 14 -5 16 15 16 192 -1 215 -6 246 -55
310 -54 71 -187 105 -280 72z"/>
<path d="M5412 4939 l3 -123 107 -97 c337 -306 538 -430 812 -500 114 -29 302
-28 423 1 251 63 511 248 623 446 27 47 22 70 -16 84 -35 14 -56 6 -111 -42
-121 -105 -256 -167 -442 -204 -127 -25 -393 -15 -516 19 -158 44 -352 128
-489 211 -52 32 -66 36 -127 36 -77 0 -76 -1 -81 89 -3 43 -7 48 -96 124 l-93
79 3 -123z"/>
<path d="M4541 4770 c-35 -27 -101 -75 -149 -106 -48 -32 -98 -65 -112 -74
-166 -110 -409 -209 -605 -246 -123 -22 -339 -15 -443 15 -103 30 -190 71
-257 122 l-57 43 -86 -3 c-48 -1 -88 -4 -90 -6 -3 -2 -2 -19 2 -38 22 -120
211 -266 431 -333 86 -27 100 -28 295 -28 183 -1 215 2 295 22 232 61 457 170
681 331 107 78 312 241 337 269 18 19 17 20 -27 26 -24 4 -66 18 -93 31 -26
14 -51 25 -54 25 -4 0 -34 -22 -68 -50z"/>
</g>
</svg>
